<svg width="40" height="40" viewBox="0 0 40 40" fill="none" xmlns="http://www.w3.org/2000/svg">
<path d="M20.036 0.149963C9.01217 0.149963 0.072998 9.23988 0.072998 20.4538C0.072998 29.4247 5.793 37.0355 13.7249 39.7203C14.7226 39.9082 15.0889 39.2798 15.0889 38.7435C15.0889 38.2594 15.0704 36.6599 15.0618 34.9633C9.50804 36.1916 8.33614 32.5677 8.33614 32.5677C7.42804 30.2208 6.11961 29.5968 6.11961 29.5968C4.30837 28.3366 6.25614 28.3625 6.25614 28.3625C8.26077 28.5054 9.3163 30.4549 9.3163 30.4549C11.0968 33.5589 13.9864 32.6615 15.1256 32.1427C15.3047 30.8308 15.8221 29.9344 16.393 29.4277C11.9589 28.9143 7.29779 27.1733 7.29779 19.3933C7.29779 17.1765 8.07763 15.3653 9.35465 13.9434C9.14738 13.4316 8.46407 11.3669 9.54804 8.57012C9.54804 8.57012 11.2244 8.02442 15.0393 10.6514C16.6317 10.2015 18.3394 9.97589 20.036 9.96815C21.7325 9.97589 23.4416 10.2015 25.037 10.6514C28.8472 8.02442 30.5213 8.57012 30.5213 8.57012C31.6079 11.3669 30.9242 13.4316 30.717 13.9434C31.997 15.3653 32.7715 17.1765 32.7715 19.3933C32.7715 27.1918 28.1014 28.9089 23.6561 29.4115C24.3722 30.0416 25.0102 31.2773 25.0102 33.1716C25.0102 35.888 24.987 38.0744 24.987 38.7435C24.987 39.2839 25.3464 39.917 26.3583 39.7176C34.2859 37.0298 39.9986 29.4216 39.9986 20.4538C39.9986 9.23988 31.0608 0.149963 20.036 0.149963Z" fill="black"/>
<path d="M7.634 29.3019C7.59003 29.4031 7.434 29.4331 7.29185 29.3638C7.14706 29.2976 7.06574 29.16 7.11268 29.0588C7.15565 28.9549 7.31202 28.9264 7.45648 28.9953C7.6016 29.0619 7.68425 29.2007 7.634 29.3019Z" fill="black"/>
<path d="M8.44258 30.2192C8.34737 30.3089 8.16126 30.2672 8.03498 30.1253C7.9044 29.9838 7.87994 29.7945 7.97646 29.7034C8.07465 29.6136 8.25514 29.6556 8.38605 29.7972C8.51663 29.9404 8.54208 30.1284 8.44258 30.2192Z" fill="black"/>
<path d="M9.22974 31.3886C9.10743 31.475 8.90743 31.3939 8.78379 31.2134C8.66148 31.0328 8.66148 30.8163 8.78644 30.7295C8.9104 30.6428 9.10743 30.7208 9.23272 30.9C9.3547 31.0833 9.3547 31.3001 9.22974 31.3886Z" fill="black"/>
<path d="M10.3081 32.5183C10.1987 32.641 9.96561 32.608 9.79504 32.4406C9.62049 32.2769 9.5719 32.0445 9.68165 31.9218C9.79239 31.7987 10.0268 31.8334 10.1987 31.9995C10.3719 32.1629 10.4248 32.3969 10.3081 32.5183Z" fill="black"/>
<path d="M11.7956 33.1743C11.7474 33.3333 11.5229 33.4056 11.2968 33.338C11.071 33.2684 10.9232 33.0821 10.9688 32.9214C11.0158 32.7614 11.2412 32.6861 11.469 32.7583C11.6945 32.8276 11.8426 33.0125 11.7956 33.1743Z" fill="black"/>
<path d="M13.4294 33.296C13.435 33.4634 13.2433 33.6023 13.0059 33.605C12.7672 33.6107 12.5742 33.4752 12.5715 33.3104C12.5715 33.1413 12.759 33.0038 12.9976 32.9998C13.235 32.995 13.4294 33.1295 13.4294 33.296Z" fill="black"/>
<path d="M14.9497 33.0327C14.9781 33.1961 14.8131 33.3639 14.5774 33.4083C14.3457 33.4516 14.1311 33.3508 14.1017 33.1887C14.073 33.0213 14.2409 32.8535 14.4723 32.8101C14.7083 32.7684 14.9196 32.8666 14.9497 33.0327Z" fill="black"/>
</svg>
