<svg width="40" height="40" viewBox="0 0 40 40" fill="none" xmlns="http://www.w3.org/2000/svg">
<path fill-rule="evenodd" clip-rule="evenodd" d="M20 0C8.9543 0 0 8.9543 0 20C0 31.0457 8.9543 40 20 40C31.0457 40 40 31.0457 40 20C40 8.9543 31.0457 0 20 0ZM8.33333 19.9669C8.33333 13.5521 13.5669 8.33333 19.9998 8.33333C26.4328 8.33333 31.6664 13.5521 31.6664 19.9669C31.6664 20.8757 31.5906 21.6113 31.4206 22.3497L31.4182 22.362C31.4177 22.3642 31.3334 22.7046 31.2868 22.8531C30.9985 23.7726 30.4765 24.5386 29.7771 25.0679C29.0988 25.5814 28.2579 25.8643 27.4092 25.8643C27.3043 25.8643 27.1988 25.86 27.0954 25.8517C25.8902 25.7552 24.8305 25.1228 24.1807 24.1144C23.0631 25.235 21.5803 25.8515 19.9998 25.8515C16.7459 25.8515 14.0987 23.2117 14.0987 19.9669C14.0987 16.7222 16.7459 14.0824 19.9998 14.0824C23.2537 14.0824 25.901 16.7222 25.901 19.9669V21.8638C25.9059 22.9706 26.6507 23.4231 27.287 23.4743C27.9201 23.523 28.7626 23.1553 29.0561 21.955C29.2009 21.2968 29.2745 20.6277 29.2745 19.9669C29.2745 14.8672 25.1139 10.7184 19.9998 10.7184C14.8858 10.7184 10.7252 14.8672 10.7252 19.9669C10.7252 25.0665 14.8858 29.2154 19.9998 29.2154C21.78 29.2154 23.5113 28.7084 25.0066 27.7492L25.0334 27.732L26.6051 29.5541L26.5714 29.5772C24.6291 30.9009 22.3566 31.6006 19.9998 31.6006C13.5669 31.6006 8.33333 26.3817 8.33333 19.9669Z" fill="white"/>
<path fill-rule="evenodd" clip-rule="evenodd" d="M23.5091 19.9669C23.5091 21.8965 21.9348 23.4663 19.9998 23.4663C18.0648 23.4663 16.4906 21.8965 16.4906 19.9669C16.4906 18.0374 18.0648 16.4676 19.9998 16.4676C21.9348 16.4676 23.5091 18.0374 23.5091 19.9669" fill="white"/>
</svg>
